<svg id="Layer_1" data-name="Layer 1" xmlns="http://www.w3.org/2000/svg" viewBox="0 0 1024 1024"><defs><style>.cls-1{fill:#43a1ff;}.cls-2{fill:#fff;}.cls-3{font-size:49.2px;fill:#585857;font-family:PTSans-Bold, PT Sans;font-weight:700;}.cls-4{fill:#70706f;}.cls-5{fill:#999898;}.cls-6{fill:#d6d7d7;}.cls-13,.cls-7,.cls-8,.cls-9{fill:none;stroke-miterlimit:10;}.cls-7,.cls-8{stroke:#fff;stroke-linecap:round;stroke-width:2.4px;}.cls-8{stroke-dasharray:11.92 11.92;}.cls-9{stroke:#ee8f20;stroke-width:5.6px;}.cls-10{fill:#ee8f20;}.cls-11{fill:#f7b04e;}.cls-12{fill:#ea7d21;}.cls-13{stroke:#aeaeaf;stroke-width:0.74px;}.cls-14{fill:#aeaeaf;}.cls-15{fill:#e86300;}</style></defs><rect class="cls-1" x="-1.14" y="-1.14" width="1026.27" height="1026.27" rx="513.13"/><rect class="cls-2" x="153.68" y="216.28" width="404.31" height="581.65" rx="15.63"/><text class="cls-3" transform="translate(293.03 294.98)">MENU</text><rect class="cls-4" x="186.95" y="328.83" width="337.77" height="8.51" rx="4.08"/><rect class="cls-4" x="186.95" y="373.23" width="156.65" height="8.51" rx="4.08"/><rect class="cls-4" x="368.07" y="373.23" width="156.65" height="8.51" rx="4.08"/><rect class="cls-5" x="186.95" y="403.3" width="95.78" height="4.26" rx="2.04"/><rect class="cls-5" x="313.93" y="403.3" width="29.67" height="4.26" rx="2.04"/><rect class="cls-5" x="186.95" y="420.89" width="95.78" height="4.26" rx="2.04"/><rect class="cls-5" x="313.93" y="420.89" width="29.67" height="4.26" rx="2.04"/><rect class="cls-5" x="186.95" y="438.48" width="95.78" height="4.26" rx="2.04"/><rect class="cls-5" x="313.93" y="438.48" width="29.67" height="4.26" rx="2.04"/><rect class="cls-5" x="186.95" y="456.06" width="95.78" height="4.26" rx="2.04"/><rect class="cls-5" x="313.93" y="456.06" width="29.67" height="4.26" rx="2.04"/><rect class="cls-5" x="186.95" y="473.65" width="95.78" height="4.26" rx="2.04"/><rect class="cls-5" x="313.93" y="473.65" width="29.67" height="4.26" rx="2.04"/><rect class="cls-5" x="368.07" y="403.3" width="95.78" height="4.26" rx="2.04"/><rect class="cls-5" x="495.05" y="403.3" width="29.67" height="4.26" rx="2.04"/><rect class="cls-5" x="368.07" y="420.89" width="95.78" height="4.26" rx="2.04"/><rect class="cls-5" x="495.05" y="420.89" width="29.67" height="4.26" rx="2.04"/><rect class="cls-5" x="368.07" y="438.48" width="95.78" height="4.26" rx="2.04"/><rect class="cls-5" x="495.05" y="438.48" width="29.67" height="4.26" rx="2.04"/><rect class="cls-5" x="368.07" y="456.06" width="95.78" height="4.26" rx="2.04"/><rect class="cls-5" x="495.05" y="456.06" width="29.67" height="4.26" rx="2.04"/><rect class="cls-5" x="368.07" y="473.65" width="95.78" height="4.26" rx="2.04"/><rect class="cls-5" x="495.05" y="473.65" width="29.67" height="4.26" rx="2.04"/><rect class="cls-6" x="194.37" y="520.09" width="141.82" height="107.5"/><path class="cls-7" d="M574.92,545.87l4.92-3.43"/><path class="cls-8" d="M589.62,535.61,741.18,429.86"/><path class="cls-7" d="M746.07,426.45,751,423"/><rect class="cls-6" x="368.07" y="536.54" width="95.78" height="4.26" rx="2.04"/><rect class="cls-6" x="495.05" y="536.54" width="29.67" height="4.26" rx="2.04"/><rect class="cls-6" x="368.07" y="554.13" width="95.78" height="4.26" rx="2.04"/><rect class="cls-6" x="495.05" y="554.13" width="29.67" height="4.26" rx="2.04"/><rect class="cls-6" x="368.07" y="571.71" width="95.78" height="4.26" rx="2.04"/><rect class="cls-6" x="495.05" y="571.71" width="29.67" height="4.26" rx="2.04"/><rect class="cls-6" x="368.07" y="589.3" width="95.78" height="4.26" rx="2.04"/><rect class="cls-6" x="495.05" y="589.3" width="29.67" height="4.26" rx="2.04"/><rect class="cls-6" x="368.07" y="606.89" width="95.78" height="4.26" rx="2.04"/><rect class="cls-6" x="495.05" y="606.89" width="29.67" height="4.26" rx="2.04"/><rect class="cls-5" x="186.95" y="669.26" width="95.78" height="4.26" rx="2.04"/><rect class="cls-5" x="313.93" y="669.26" width="29.67" height="4.26" rx="2.04"/><rect class="cls-5" x="186.95" y="686.85" width="95.78" height="4.26" rx="2.04"/><rect class="cls-5" x="313.93" y="686.85" width="29.67" height="4.26" rx="2.04"/><rect class="cls-5" x="186.95" y="704.44" width="95.78" height="4.26" rx="2.04"/><rect class="cls-5" x="313.93" y="704.44" width="29.67" height="4.26" rx="2.04"/><rect class="cls-5" x="186.95" y="722.02" width="95.78" height="4.26" rx="2.04"/><rect class="cls-5" x="313.93" y="722.02" width="29.67" height="4.26" rx="2.04"/><rect class="cls-5" x="186.95" y="739.61" width="95.78" height="4.26" rx="2.04"/><rect class="cls-5" x="313.93" y="739.61" width="29.67" height="4.26" rx="2.04"/><rect class="cls-6" x="368.07" y="669.83" width="156.65" height="73.46"/><rect class="cls-9" x="355.84" y="520.09" width="186.26" height="107.5"/><rect class="cls-2" x="581.68" y="217.88" width="277.15" height="186.7" rx="11.09"/><path class="cls-10" d="M601.93,294.93H750.62a0,0,0,0,1,0,0V387a0,0,0,0,1,0,0H601.93a4,4,0,0,1-4-4V298.93A4,4,0,0,1,601.93,294.93Z"/><path class="cls-11" d="M758.19,294.93h82.92a4,4,0,0,1,4,4v34.41a4,4,0,0,1-4,4H758.19a0,0,0,0,1,0,0V294.93A0,0,0,0,1,758.19,294.93Z"/><path class="cls-12" d="M758.19,344.59h82.92a4,4,0,0,1,4,4V383a4,4,0,0,1-4,4H758.19a0,0,0,0,1,0,0V344.59A0,0,0,0,1,758.19,344.59Z"/><rect class="cls-13" x="597.71" y="268.81" width="61.31" height="16.99" rx="7.86"/><rect class="cls-14" x="605.5" y="275.71" width="45.73" height="3.21" rx="1.6"/><rect class="cls-13" x="665.07" y="268.81" width="61.31" height="16.99" rx="7.86"/><rect class="cls-14" x="672.85" y="275.71" width="45.73" height="3.21" rx="1.6"/><rect class="cls-13" x="732.64" y="268.81" width="61.31" height="16.99" rx="7.86"/><rect class="cls-14" x="740.43" y="275.71" width="45.73" height="3.21" rx="1.6"/><rect class="cls-4" x="598.39" y="235.97" width="132.18" height="7.08" rx="3.54"/><rect class="cls-14" x="598.39" y="248.41" width="88.63" height="3.54" rx="1.77"/><path class="cls-15" d="M687.38,353.94c-2,.23-5.16,2-7,2.78-1.6.69-3.87,1.65-6.13.84-1-.36-2.59-1.33-2.65-2.58s1.5-2.35,4.6-4.67c.68-.5.9-.64,1.26-.9,1.64-1.21,5.79-4.26,5.92-8.43a7.09,7.09,0,0,0-3.34-6.34,6.85,6.85,0,0,0-4.66-.56,10,10,0,0,0-4,2,20.26,20.26,0,0,0-5.92,6.41,15.83,15.83,0,0,0-2.44,7,14.33,14.33,0,0,0,1,6.48,12.06,12.06,0,0,0,3.62,5,12.33,12.33,0,0,0,4.53,2.23,15.67,15.67,0,0,0,5.85.49,17.47,17.47,0,0,0,9.27-4.11c2.59-2,2.7-3,2.65-3.48a2.7,2.7,0,0,0-1.68-2.16A1.86,1.86,0,0,0,687.38,353.94Zm-18.32-4.4c-.95-.73.55-5.11,3.49-7.45.91-.73,2.75-1.95,3.48-1.39s-.2,3.15-.28,3.34a8.23,8.23,0,0,1-2.09,2.86C672.76,347.74,669.91,350.2,669.06,349.54Z"/><rect class="cls-15" x="666.14" y="319.65" width="4.13" height="12" rx="2.03" transform="translate(-73.13 271.12) rotate(-21.78)"/><rect class="cls-15" x="675.46" y="318.05" width="4.13" height="12" rx="2.03" transform="translate(53.33 -93.59) rotate(8.22)"/><rect class="cls-15" x="658.74" y="324.73" width="4.13" height="12" rx="2.03" transform="translate(1329.49 16.25) rotate(128.22)"/><rect class="cls-15" x="655.11" y="332.83" width="4.13" height="12" rx="2.03" transform="translate(1107.78 -247.37) rotate(100.27)"/><rect class="cls-15" x="683.68" y="321.42" width="4.13" height="12" rx="2.03" transform="translate(325.46 -341.64) rotate(36.18)"/></svg>